{
  "accessors": [
    {
      "bufferView": 3,
      "componentType": 5126,
      "count": 4928,
      "max": [
        3.5924675464630127,
        5.033961772918701,
        8.20895767211914
      ],
      "min": [
        -3.5924675464630127,
        0.27823057770729065,
        -8.384620666503906
      ],
      "type": "VEC3"
    },
    {
      "bufferView": 3,
      "byteOffset": 59136,
      "componentType": 5126,
      "count": 4928,
      "max": [
        0.9999960660934448,
        1.0,
        0.9994297027587891
      ],
      "min": [
        -0.9999960660934448,
        -0.9998622536659241,
        -0.9998470544815063
      ],
      "type": "VEC3"
    },
    {
      "bufferView": 2,
      "componentType": 5126,
      "count": 4928,
      "max": [
        0.5533914566040039,
        0.6745424270629883
      ],
      "min": [
        0.5428400039672852,
        0.6679588556289673
      ],
      "type": "VEC2"
    },
    {
      "bufferView": 2,
      "byteOffset": 39424,
      "componentType": 5126,
      "count": 4928,
      "max": [
        0.9921875,
        0.8798828125
      ],
      "min": [
        0.02020263671875,
        0.01302337646484375
      ],
      "type": "VEC2"
    },
    {
      "bufferView": 1,
      "componentType": 5125,
      "count": 16092,
      "type": "SCALAR"
    },
    {
      "bufferView": 3,
      "byteOffset": 118272,
      "componentType": 5126,
      "count": 428,
      "max": [
        3.024146795272827,
        4.729518413543701,
        7.5560407638549805
      ],
      "min": [
        -3.024146795272827,
        0.6656620502471924,
        -7.852384090423584
      ],
      "type": "VEC3"
    },
    {
      "bufferView": 3,
      "byteOffset": 123408,
      "componentType": 5126,
      "count": 428,
      "max": [
        0.9727517366409302,
        0.9946906566619873,
        0.9977569580078125
      ],
      "min": [
        -0.9727517366409302,
        -0.9955505132675171,
        -0.9939501285552979
      ],
      "type": "VEC3"
    },
    {
      "bufferView": 2,
      "byteOffset": 78848,
      "componentType": 5126,
      "count": 428,
      "max": [
        1.392578125,
        0.8857421875
      ],
      "min": [
        0.1380615234375,
        0.0177154541015625
      ],
      "type": "VEC2"
    },
    {
      "bufferView": 2,
      "byteOffset": 82272,
      "componentType": 5126,
      "count": 428,
      "max": [
        0.36865234375,
        0.43115234375
      ],
      "min": [
        0.00627899169921875,
        -0.61572265625
      ],
      "type": "VEC2"
    },
    {
      "bufferView": 1,
      "byteOffset": 64368,
      "componentType": 5125,
      "count": 897,
      "type": "SCALAR"
    },
    {
      "bufferView": 3,
      "byteOffset": 128544,
      "componentType": 5126,
      "count": 13881,
      "max": [
        3.5924675464630127,
        5.050093173980713,
        8.177634239196777
      ],
      "min": [
        -3.5924675464630127,
        -0.9596893787384033,
        -8.282004356384277
      ],
      "type": "VEC3"
    },
    {
      "bufferView": 3,
      "byteOffset": 295116,
      "componentType": 5126,
      "count": 13881,
      "max": [
        1.0,
        1.0,
        1.0
      ],
      "min": [
        -1.0,
        -1.0,
        -1.0
      ],
      "type": "VEC3"
    },
    {
      "bufferView": 2,
      "byteOffset": 85696,
      "componentType": 5126,
      "count": 13881,
      "max": [
        0.99853515625,
        1.99609375
      ],
      "min": [
        -0.49658203125,
        0.0007042884826660156
      ],
      "type": "VEC2"
    },
    {
      "bufferView": 2,
      "byteOffset": 196744,
      "componentType": 5126,
      "count": 13881,
      "max": [
        3.984375,
        0.9853515625
      ],
      "min": [
        0.0256805419921875,
        0.007366180419921875
      ],
      "type": "VEC2"
    },
    {
      "bufferView": 1,
      "byteOffset": 67956,
      "componentType": 5125,
      "count": 37437,
      "type": "SCALAR"
    },
    {
      "bufferView": 3,
      "byteOffset": 461688,
      "componentType": 5126,
      "count": 2330,
      "max": [
        0.6355254650115967,
        0.7721645832061768,
        -0.03951705992221832
      ],
      "min": [
        0.06006757915019989,
        -0.5512921810150146,
        -1.101649284362793
      ],
      "type": "VEC3"
    },
    {
      "bufferView": 3,
      "byteOffset": 489648,
      "componentType": 5126,
      "count": 2330,
      "max": [
        0.9999504089355469,
        0.9997535347938538,
        0.9999960660934448
      ],
      "min": [
        -0.9991052746772766,
        -0.997550904750824,
        -0.9995017647743225
      ],
      "type": "VEC3"
    },
    {
      "bufferView": 2,
      "byteOffset": 307792,
      "componentType": 5126,
      "count": 2330,
      "max": [
        0.9951171875,
        0.9951171875
      ],
      "min": [
        0.0101470947265625,
        0.0123291015625
      ],
      "type": "VEC2"
    },
    {
      "bufferView": 2,
      "byteOffset": 326432,
      "componentType": 5126,
      "count": 2330,
      "max": [
        0.0,
        1.0
      ],
      "min": [
        0.0,
        1.0
      ],
      "type": "VEC2"
    },
    {
      "bufferView": 1,
      "byteOffset": 217704,
      "componentType": 5125,
      "count": 5304,
      "type": "SCALAR"
    },
    {
      "bufferView": 5,
      "componentType": 5126,
      "count": 6,
      "max": [
        1.0,
        0.0,
        0.0,
        0.0,
        0.0,
        1.0,
        2.3542357396877378e-08,
        0.0,
        0.0,
        0.0,
        1.0,
        0.0,
        0.0,
        0.0,
        0.0,
        1.0
      ],
      "min": [
        0.31182801723480225,
        0.0,
        0.0,
        0.0,
        0.0,
        0.31182801723480225,
        0.0,
        0.0,
        0.0,
        -2.3542357396877378e-08,
        0.31182801723480225,
        0.0,
        0.0,
        0.0,
        0.0,
        1.0
      ],
      "type": "MAT4"
    },
    {
      "bufferView": 0,
      "componentType": 5123,
      "count": 4928,
      "type": "VEC4"
    },
    {
      "bufferView": 4,
      "componentType": 5126,
      "count": 4928,
      "max": [
        1.0,
        0.0,
        0.0,
        0.0
      ],
      "min": [
        1.0,
        0.0,
        0.0,
        0.0
      ],
      "type": "VEC4"
    },
    {
      "bufferView": 0,
      "byteOffset": 39424,
      "componentType": 5123,
      "count": 428,
      "type": "VEC4"
    },
    {
      "bufferView": 4,
      "byteOffset": 78848,
      "componentType": 5126,
      "count": 428,
      "max": [
        1.0,
        0.0,
        0.0,
        0.0
      ],
      "min": [
        1.0,
        0.0,
        0.0,
        0.0
      ],
      "type": "VEC4"
    },
    {
      "bufferView": 0,
      "byteOffset": 42848,
      "componentType": 5123,
      "count": 13881,
      "type": "VEC4"
    },
    {
      "bufferView": 4,
      "byteOffset": 85696,
      "componentType": 5126,
      "count": 13881,
      "max": [
        1.0,
        0.0,
        0.0,
        0.0
      ],
      "min": [
        1.0,
        0.0,
        0.0,
        0.0
      ],
      "type": "VEC4"
    }
  ],
  "asset": {
    "extras": {
      "author": "BOOST7 (https://sketchfab.com/bogdanvelia64)",
      "license": "CC-BY-4.0 (http://creativecommons.org/licenses/by/4.0/)",
      "source": "https://sketchfab.com/3d-models/nfs-unbound-traffic-gmc-yukon-denali-2015-83bc1a1250df45358dec5e106dbff0e6",
      "title": "NFS UNBOUND TRAFFIC GMC YUKON DENALI 2015"
    },
    "generator": "Sketchfab-16.21.0",
    "version": "2.0"
  },
  "bufferViews": [
    {
      "buffer": 0,
      "byteLength": 153896,
      "byteStride": 8,
      "name": "shortBufferViews",
      "target": 34962
    },
    {
      "buffer": 0,
      "byteLength": 238920,
      "byteOffset": 153896,
      "name": "floatBufferViews",
      "target": 34963
    },
    {
      "buffer": 0,
      "byteLength": 345072,
      "byteOffset": 392816,
      "byteStride": 8,
      "name": "floatBufferViews",
      "target": 34962
    },
    {
      "buffer": 0,
      "byteLength": 517608,
      "byteOffset": 737888,
      "byteStride": 12,
      "name": "floatBufferViews",
      "target": 34962
    },
    {
      "buffer": 0,
      "byteLength": 307792,
      "byteOffset": 1255496,
      "byteStride": 16,
      "name": "floatBufferViews",
      "target": 34962
    },
    {
      "buffer": 0,
      "byteLength": 384,
      "byteOffset": 1563288,
      "name": "floatBufferViews"
    }
  ],
  "buffers": [
    {
      "byteLength": 1563672,
      "uri": "scene.bin"
    }
  ],
  "extensionsUsed": [
    "KHR_materials_specular"
  ],
  "images": [
    {
      "uri": "textures/Material.003_baseColor.png"
    },
    {
      "uri": "textures/Material.005_baseColor.png"
    }
  ],
  "materials": [
    {
      "doubleSided": true,
      "extensions": {
        "KHR_materials_specular": {
          "specularColorFactor": [
            1.0,
            1.0,
            1.0
          ],
          "specularFactor": 1.0
        }
      },
      "name": "Material.003",
      "pbrMetallicRoughness": {
        "baseColorTexture": {
          "index": 0
        },
        "metallicFactor": 0.346457,
        "roughnessFactor": 0.122047
      }
    },
    {
      "name": "Material.004"
    },
    {
      "doubleSided": true,
      "name": "Material.001",
      "pbrMetallicRoughness": {
        "baseColorTexture": {
          "index": 0
        },
        "metallicFactor": 0.0,
        "roughnessFactor": 0.5
      }
    },
    {
      "doubleSided": true,
      "name": "Material.005",
      "pbrMetallicRoughness": {
        "baseColorTexture": {
          "index": 1
        },
        "metallicFactor": 0.0,
        "roughnessFactor": 0.5
      }
    }
  ],
  "meshes": [
    {
      "name": "Object_0",
      "primitives": [
        {
          "attributes": {
            "JOINTS_0": 21,
            "NORMAL": 1,
            "POSITION": 0,
            "TEXCOORD_0": 2,
            "TEXCOORD_1": 3,
            "WEIGHTS_0": 22
          },
          "indices": 4,
          "material": 0,
          "mode": 4
        }
      ]
    },
    {
      "name": "Object_1",
      "primitives": [
        {
          "attributes": {
            "JOINTS_0": 23,
            "NORMAL": 6,
            "POSITION": 5,
            "TEXCOORD_0": 7,
            "TEXCOORD_1": 8,
            "WEIGHTS_0": 24
          },
          "indices": 9,
          "material": 1,
          "mode": 4
        }
      ]
    },
    {
      "name": "Object_2",
      "primitives": [
        {
          "attributes": {
            "JOINTS_0": 25,
            "NORMAL": 11,
            "POSITION": 10,
            "TEXCOORD_0": 12,
            "TEXCOORD_1": 13,
            "WEIGHTS_0": 26
          },
          "indices": 14,
          "material": 2,
          "mode": 4
        }
      ]
    },
    {
      "name": "Object_3",
      "primitives": [
        {
          "attributes": {
            "NORMAL": 16,
            "POSITION": 15,
            "TEXCOORD_0": 17,
            "TEXCOORD_1": 18
          },
          "indices": 19,
          "material": 3,
          "mode": 4
        }
      ]
    }
  ],
  "nodes": [
    {
      "children": [
        1
      ],
      "matrix": [
        1.0,
        0.0,
        0.0,
        0.0,
        0.0,
        2.220446049250313e-16,
        -1.0,
        0.0,
        0.0,
        1.0,
        2.220446049250313e-16,
        0.0,
        0.0,
        0.0,
        0.0,
        1.0
      ],
      "name": "Sketchfab_model"
    },
    {
      "children": [
        2
      ],
      "name": "root"
    },
    {
      "children": [
        3,
        17
      ],
      "matrix": [
        1.0,
        0.0,
        0.0,
        0.0,
        0.0,
        2.220446049250313e-16,
        1.0,
        0.0,
        0.0,
        -1.0,
        2.220446049250313e-16,
        0.0,
        0.0,
        0.0,
        0.0,
        1.0
      ],
      "name": "GLTF_SceneRootNode"
    },
    {
      "children": [
        4
      ],
      "matrix": [
        3.2068960666656494,
        0.0,
        0.0,
        0.0,
        0.0,
        0.0,
        3.2068960666656494,
        0.0,
        0.0,
        -3.2068960666656494,
        0.0,
        0.0,
        0.0,
        0.0,
        0.0,
        1.0
      ],
      "name": "ROOT_8"
    },
    {
      "children": [
        5,
        7,
        9,
        11,
        6,
        8,
        10
      ],
      "name": "GLTF_created_0"
    },
    {
      "children": [
        12,
        13,
        14,
        15,
        16
      ],
      "name": "GLTF_created_0_rootJoint"
    },
    {
      "name": "M_TrafficCarpaint_Max_5"
    },
    {
      "mesh": 0,
      "name": "Object_7",
      "skin": 0
    },
    {
      "name": "M_TrafficGlass_Clear_Max_6"
    },
    {
      "mesh": 1,
      "name": "Object_9",
      "skin": 0
    },
    {
      "name": "M_TrafficTexture_Max_7"
    },
    {
      "mesh": 2,
      "name": "Object_11",
      "skin": 0
    },
    {
      "name": "PART_0_0",
      "rotation": [
        -0.7071068286895752,
        0.0,
        0.0,
        0.7071068286895752
      ]
    },
    {
      "name": "PART_1_1",
      "rotation": [
        -0.7071068286895752,
        0.0,
        0.0,
        0.7071068286895752
      ]
    },
    {
      "name": "PART_2_2",
      "rotation": [
        -0.7071068286895752,
        0.0,
        0.0,
        0.7071068286895752
      ]
    },
    {
      "name": "PART_3_3",
      "rotation": [
        -0.7071068286895752,
        0.0,
        0.0,
        0.7071068286895752
      ]
    },
    {
      "name": "PART_4_4",
      "rotation": [
        -0.7071068286895752,
        0.0,
        0.0,
        0.7071068286895752
      ]
    },
    {
      "children": [
        18
      ],
      "matrix": [
        3.470425844192505,
        0.0,
        0.0,
        0.0,
        0.0,
        0.0,
        3.470425844192505,
        0.0,
        0.0,
        -3.470425844192505,
        0.0,
        0.0,
        0.300754189491272,
        0.6762049198150635,
        0.28275859355926514,
        1.0
      ],
      "name": "car_bmw_e46328i_1999_mesh_lod0_14"
    },
    {
      "children": [
        19
      ],
      "matrix": [
        0.8912611603736877,
        0.0,
        0.0,
        0.0,
        0.0,
        0.8912611603736877,
        0.0,
        0.0,
        0.0,
        0.0,
        0.8912611603736877,
        0.0,
        0.021451838314533234,
        0.05913357064127922,
        -0.07139124721288681,
        1.0
      ],
      "name": "M_TrafficDriver_Max_13"
    },
    {
      "mesh": 3,
      "name": "Object_19"
    }
  ],
  "samplers": [
    {
      "magFilter": 9729,
      "minFilter": 9987,
      "wrapS": 10497,
      "wrapT": 10497
    }
  ],
  "scene": 0,
  "scenes": [
    {
      "name": "Sketchfab_Scene",
      "nodes": [
        0
      ]
    }
  ],
  "skins": [
    {
      "inverseBindMatrices": 20,
      "joints": [
        5,
        12,
        13,
        14,
        15,
        16
      ],
      "skeleton": 5
    }
  ],
  "textures": [
    {
      "sampler": 0,
      "source": 0
    },
    {
      "sampler": 0,
      "source": 1
    }
  ]
}
